<svg id="Layer_1" data-name="Layer 1" xmlns="http://www.w3.org/2000/svg" viewBox="0 0 1280 720"><defs><style>.cls-1,.cls-18,.cls-2,.cls-3{isolation:isolate;}.cls-1{font-size:108.28px;}.cls-1,.cls-2,.cls-3{font-family:BaskOldFace, Baskerville Old Face;}.cls-2,.cls-3{font-size:30.41px;letter-spacing:1.13em;}.cls-10,.cls-11,.cls-12,.cls-13,.cls-16,.cls-17,.cls-3,.cls-8{fill:none;}.cls-10,.cls-11,.cls-12,.cls-13,.cls-14,.cls-15,.cls-16,.cls-17,.cls-3,.cls-8,.cls-9{stroke:#000;}.cls-10,.cls-11,.cls-12,.cls-13,.cls-15,.cls-16,.cls-17,.cls-3,.cls-8,.cls-9{stroke-miterlimit:10;}.cls-4{fill:#fff;}.cls-15,.cls-5{fill:#108e5f;}.cls-14,.cls-6{fill:#397688;}.cls-7{fill:#eab861;}.cls-15,.cls-8,.cls-9{stroke-width:4.56px;}.cls-9{fill:#851e22;}.cls-10{stroke-width:4.54px;}.cls-11{stroke-width:4.53px;}.cls-12{stroke-width:4.61px;}.cls-13{stroke-width:4.61px;}.cls-14{stroke-miterlimit:10;stroke-width:4.56px;}.cls-16{stroke-width:4.53px;}.cls-17{stroke-width:4.52px;}.cls-18{font-size:24.03px;font-family:ArialMT, Arial;}.cls-19{letter-spacing:-0.11em;}.cls-20{letter-spacing:0em;}</style></defs><text class="cls-1" transform="translate(269.38 479.21)">WINE FAMILY </text><text class="cls-2" transform="translate(378.61 537.52)">PRODUCTION</text><text class="cls-3" transform="translate(378.61 537.52)">PRODUCTION</text><path class="cls-4" d="M723.46,330a121.15,121.15,0,0,1-33.19,23.4,122.76,122.76,0,0,1-48.52,11.9V258q54.13.29,108.23.52A105.78,105.78,0,0,1,723.46,330Z"/><polygon class="cls-5" points="641.88 136.72 642.08 244.88 750.17 244.55 750.31 235.69 750.31 223.92 748.39 207.13 744.88 186.96 741.58 174.4 738.34 160.45 735.3 150.67 729.88 135.26 728.09 132.81 645.78 133.21 641.75 133.61 641.88 136.72"/><path class="cls-6" d="M532.13,309.21s14.21,23.87,24,29.88S590.51,366,623.7,365.41l1.12-5.89.07-12.56-.2-10.45,1.12-29.15-1.25-3.71-2.91-6.41-17.06,1.92-19.77-2.05-30.41.79L535.17,302Z"/><path class="cls-7" d="M549.38,133.61l-8.52-.53-2.72,1.26-7.66,21.95-7.81,30.61s-5.15,28.95-4.89,33.12-2.58,29.75-.53,37.49,5,26.71,5,26.71l9.32,22.94,3.84,2.31,4.56-1.45,8.07-6.41,5.81-.67,6.48,3.57,5.89,5.16,3.57.6,7.67-4.76,6-3.44,3.5-.8,5.89,4.1,6,4.3,4.62.86,9-5.62,4.95-3.24,7.21,2.12L625,137.64l1-5Z"/><path class="cls-8" d="M625.15,365.27c-43.44,0-70.21-27.63-74.58-32.33-68-63.93-12-199.79-12-199.79h86.61"/><path class="cls-9" d="M574.18,291.36c.2,0,1.06,0,2.11.06h2.45c1.78,0,3.17.07,4.56,0a7.93,7.93,0,0,0,2.05-.33.73.73,0,0,1,.27-.06,10.78,10.78,0,0,0,6.14-5.42,9.69,9.69,0,0,0,.86-3.51c.53-8.53.07-33.85.07-40.26,0-10.91,1.45-22.08-.53-32.66a20,20,0,0,0-4.5-9.79,18.49,18.49,0,0,0-7.73-5.22v-36H568.69v36a19.28,19.28,0,0,0-7.74,5.22,20,20,0,0,0-4.49,9.79c-2.05,10.58-.6,21.75-.53,32.66,0,6.41-.46,31.73.07,40.26a9.69,9.69,0,0,0,.86,3.51A10.55,10.55,0,0,0,563,291a.57.57,0,0,0,.27.06,16.06,16.06,0,0,0,5.29.27C568.49,291.36,570.81,291.23,574.18,291.36Z"/><path class="cls-8" d="M548.92,330a9.87,9.87,0,0,1,5-1.65c5.22.13,10.84,9.19,16.52,9.26,5.43.13,10.91-8.73,16.4-8.6,5.69.14,11.31,9.13,16.53,9.26,6.08.13,11.57-8.73,16.4-8.66a10.16,10.16,0,0,1,6.34,2"/><path class="cls-8" d="M571.4,350.46c4.5-2.18,9-7.86,13.49-7.8,5.82.13,11.57,9.13,16.92,9.26,6.22.13,11.84-8.73,16.8-8.66a10.81,10.81,0,0,1,6.54,2"/><path class="cls-8" d="M531.47,308.42a17.72,17.72,0,0,0,4.69.85c4.76.14,10.32-8.66,16.33-8.52,5.22.13,10.78,9.19,16.46,9.25,5.43.13,10.91-8.73,16.33-8.59,5.62.13,11.24,9.12,16.47,9.25,6,.14,11.5-8.72,16.33-8.66a9.8,9.8,0,0,1,7.14,2.71"/><path class="cls-8" d="M539.14,321.84c4.1-2.25,8.66-7.74,13.48-7.61,5.29.14,11,9.19,16.8,9.26,5.55.13,11.1-8.73,16.66-8.66,5.75.13,11.5,9.12,16.79,9.25,6.15.14,11.77-8.72,16.66-8.66a10.75,10.75,0,0,1,6.48,2"/><line class="cls-8" x1="529.02" y1="161.84" x2="557.32" y2="202.17"/><line class="cls-8" x1="519.9" y1="204.22" x2="555.67" y2="239.06"/><line class="cls-8" x1="516.92" y1="249.24" x2="555.67" y2="255.13"/><line class="cls-8" x1="521.95" y1="284.55" x2="556.19" y2="282.1"/><line class="cls-8" x1="625.48" y1="152.78" x2="590.71" y2="204.22"/><line class="cls-8" x1="625.95" y1="204.22" x2="593.02" y2="239.06"/><line class="cls-8" x1="625.95" y1="249.24" x2="593.02" y2="255.13"/><line class="cls-8" x1="624.09" y1="284.55" x2="592.56" y2="282.1"/><line class="cls-10" x1="642.08" y1="258.1" x2="642.08" y2="366.79"/><path class="cls-8" d="M642.08,365.27a108.34,108.34,0,0,0,74.57-29.81c23.67-20.57,32.27-49.13,33.52-77.69"/><line class="cls-11" x1="640.56" y1="258.1" x2="751.63" y2="258.1"/><line class="cls-8" x1="659.13" y1="257.24" x2="659.13" y2="363.03"/><line class="cls-12" x1="726.84" y1="257.24" x2="726.84" y2="325.67"/><line class="cls-8" x1="726.04" y1="280.25" x2="659.13" y2="280.25"/><line class="cls-13" x1="659.13" y1="338.3" x2="713.88" y2="338.3"/><path class="cls-6" d="M696.75,302.07,686,295.85a2,2,0,0,0-3,1.46l-.46,11.77-.46,11.76a1.92,1.92,0,0,0,2.84,1.66L696.16,317l11.24-5.49a1.73,1.73,0,0,0,.13-3.1Z"/><path class="cls-8" d="M696.75,302.07,686,295.85a2,2,0,0,0-3,1.46l-.46,11.77-.46,11.76a1.92,1.92,0,0,0,2.84,1.66L696.16,317l11.24-5.49a1.73,1.73,0,0,0,.13-3.1Z"/><line class="cls-8" x1="659.13" y1="280.25" x2="641.02" y2="280.25"/><line class="cls-8" x1="659.13" y1="269.74" x2="641.02" y2="269.74"/><line class="cls-8" x1="659.13" y1="301.27" x2="641.02" y2="301.27"/><line class="cls-8" x1="659.13" y1="290.76" x2="641.02" y2="290.76"/><line class="cls-8" x1="746.67" y1="280.25" x2="726.84" y2="280.25"/><line class="cls-8" x1="748.52" y1="269.74" x2="726.84" y2="269.74"/><line class="cls-8" x1="741.51" y1="301.27" x2="726.84" y2="301.27"/><line class="cls-8" x1="744.95" y1="290.76" x2="726.84" y2="290.76"/><line class="cls-8" x1="659.13" y1="322.23" x2="641.02" y2="322.23"/><line class="cls-8" x1="659.13" y1="311.72" x2="641.02" y2="311.72"/><line class="cls-8" x1="659.13" y1="343.19" x2="641.02" y2="343.19"/><line class="cls-8" x1="659.13" y1="353.7" x2="641.02" y2="353.7"/><line class="cls-8" x1="659.13" y1="332.75" x2="641.02" y2="332.75"/><path class="cls-8" d="M750.17,244.55c2.32-55.74-21.48-111.4-21.48-111.4H642.08V244.88Z"/><circle class="cls-14" cx="676.53" cy="180.61" r="17.32" transform="translate(291.24 765.31) rotate(-71.56)"/><circle class="cls-9" cx="715.46" cy="180.62" r="17.32"/><circle class="cls-15" cx="696.03" cy="163.23" r="17.32"/><line class="cls-16" x1="625.15" y1="131.62" x2="625.15" y2="366.79"/><path class="cls-7" d="M665.42,204.15l-5.56,3.51-5.62,9.05-2,9.13.6,6.15,38.15-.07c15.93-.4,31.86-.73,47.86-1.12A34.62,34.62,0,0,0,733,213.08a33.84,33.84,0,0,0-11.63-10.71,21,21,0,0,0-16.4,2A20.61,20.61,0,0,0,696,215.92l-3.84-6.41-6.94-6.81-5-2.12-6.48-.2-5.22,1.19Z"/><path class="cls-8" d="M651.86,230.73c-.33-18.71,13.42-31.47,25.06-30.74,13.62.86,24.26,21.75,20.43,28.62-.6,1.06-2.51,3.64-3.84,3.24s-1.38-2.9-1.45-4c-.2-2.51.07-7.21,4.1-13.42"/><line class="cls-17" x1="650.28" y1="232.12" x2="739.79" y2="232.12"/><path class="cls-8" d="M738.27,231.85c.33-18.84-13.29-31.73-24.72-30.94-7.87.53-14.75,8-18.32,15.47"/><text class="cls-18" transform="translate(419.18 285.07)">ES<tspan class="cls-19" x="32.06" y="0">T</tspan><tspan class="cls-20" x="44.07" y="0">.</tspan></text><text class="cls-18" transform="translate(788.18 285.07)">2020</text></svg>