<svg id="Layer_1" data-name="Layer 1" xmlns="http://www.w3.org/2000/svg" viewBox="0 0 1280 720"><defs><style>.cls-1,.cls-18,.cls-2,.cls-3{isolation:isolate;}.cls-1{font-size:177.01px;}.cls-1,.cls-2,.cls-3{font-family:BaskOldFace, Baskerville Old Face;}.cls-2,.cls-3{font-size:49.72px;letter-spacing:1.13em;}.cls-10,.cls-11,.cls-12,.cls-13,.cls-16,.cls-17,.cls-3,.cls-8{fill:none;}.cls-10,.cls-11,.cls-12,.cls-13,.cls-14,.cls-15,.cls-16,.cls-17,.cls-3,.cls-8,.cls-9{stroke:#000;}.cls-10,.cls-11,.cls-12,.cls-13,.cls-15,.cls-16,.cls-17,.cls-3,.cls-8,.cls-9{stroke-miterlimit:10;}.cls-4{fill:#fff;}.cls-15,.cls-5{fill:#108e5f;}.cls-14,.cls-6{fill:#397688;}.cls-7{fill:#eab861;}.cls-15,.cls-8,.cls-9{stroke-width:4.56px;}.cls-9{fill:#851e22;}.cls-10{stroke-width:4.54px;}.cls-11{stroke-width:4.53px;}.cls-12{stroke-width:4.61px;}.cls-13{stroke-width:4.61px;}.cls-14{stroke-miterlimit:10;stroke-width:4.56px;}.cls-16{stroke-width:4.53px;}.cls-17{stroke-width:4.52px;}.cls-18{font-size:39.29px;font-family:ArialMT, Arial;}.cls-19{letter-spacing:-0.11em;}</style></defs><text class="cls-1" transform="translate(33.67 585.49)">WINE FAMILY </text><text class="cls-2" transform="translate(212.26 680.81)">PRODUCTION</text><text class="cls-3" transform="translate(212.26 680.81)">PRODUCTION</text><path class="cls-4" d="M776,341.5a198.31,198.31,0,0,1-54.26,38.26,201,201,0,0,1-79.33,19.46V223.9q88.52.49,176.93.87a173.6,173.6,0,0,1-5.83,46.8A175.39,175.39,0,0,1,776,341.5Z"/><polygon class="cls-5" points="642.64 25.57 642.97 202.39 819.69 201.85 819.9 187.37 819.9 168.13 816.77 140.68 811.04 107.71 805.64 87.18 800.34 64.37 795.37 48.37 786.5 23.19 783.59 19.19 649.02 19.84 642.43 20.49 642.64 25.57"/><path class="cls-6" d="M463.22,307.56s23.24,39,39.24,48.85,56.2,44,110.46,43l1.84-9.62.11-20.53-.33-17.08,1.84-47.67-2-6L609.57,288l-27.88,3.13-32.32-3.35-49.72,1.3-31.45,6.7Z"/><path class="cls-7" d="M491.44,20.49l-13.95-.87-4.43,2.06L460.52,57.56l-12.75,50s-8.43,47.35-8,54.15-4.21,48.64-.86,61.29S447,266.7,447,266.7l15.24,37.51,6.27,3.78,7.46-2.38,13.19-10.48,9.51-1.08,10.59,5.84,9.62,8.43,5.84,1,12.53-7.78,9.73-5.62,5.73-1.3,9.62,6.7,9.73,7,7.56,1.4,14.7-9.19,8.11-5.29,11.78,3.46L615,27.08,616.6,19Z"/><path class="cls-8" d="M615.3,399.22c-71,0-114.79-45.18-121.92-52.86C382.27,241.84,473.82,19.73,473.82,19.73H615.41"/><path class="cls-9" d="M532,278.38c.32,0,1.73,0,3.46.11h4c2.92,0,5.19.1,7.46,0a13.53,13.53,0,0,0,3.35-.54,1.14,1.14,0,0,1,.44-.11c6.8-2.06,9.83-8.43,10.05-8.87a16.09,16.09,0,0,0,1.4-5.72c.87-13.95.11-55.34.11-65.83,0-17.83,2.38-36.1-.86-53.39A32.73,32.73,0,0,0,554,128a30.44,30.44,0,0,0-12.65-8.54V60.7H523v58.79A31.45,31.45,0,0,0,510.35,128,32.63,32.63,0,0,0,503,144c-3.35,17.29-1,35.56-.86,53.39,0,10.49-.76,51.88.1,65.83a16.16,16.16,0,0,0,1.41,5.72,17.25,17.25,0,0,0,10.05,8.87.8.8,0,0,0,.43.11c3.25.86,5.51.54,8.65.43C522.67,278.38,526.45,278.16,532,278.38Z"/><path class="cls-8" d="M490.68,341.61a16.12,16.12,0,0,1,8.21-2.71c8.54.22,17.73,15,27,15.14,8.87.21,17.84-14.27,26.81-14.05,9.29.21,18.48,14.91,27,15.13,9.94.21,18.91-14.27,26.8-14.16,4.87.11,8,1.4,10.38,3.24"/><path class="cls-8" d="M527.43,375c7.35-3.56,14.7-12.86,22.05-12.75,9.51.22,18.91,14.92,27.67,15.13,10.16.22,19.34-14.26,27.45-14.16,5,.11,8.21,1.41,10.7,3.25"/><path class="cls-8" d="M462.14,306.26a29.27,29.27,0,0,0,7.68,1.41c7.78.21,16.86-14.16,26.69-13.94,8.54.21,17.62,15,26.92,15.13,8.86.21,17.83-14.27,26.69-14.05,9.19.21,18.38,14.91,26.92,15.13,9.83.21,18.8-14.27,26.69-14.16,5.73.11,9.08,1.94,11.68,4.43"/><path class="cls-8" d="M474.68,328.2c6.7-3.67,14.16-12.64,22.05-12.43,8.65.22,18,15,27.45,15.14,9.08.21,18.16-14.27,27.24-14.16,9.41.21,18.81,14.91,27.46,15.13,10,.22,19.23-14.27,27.23-14.16,4.87.11,8.11,1.41,10.59,3.24"/><line class="cls-8" x1="458.15" y1="66.64" x2="504.41" y2="132.57"/><line class="cls-8" x1="443.23" y1="135.92" x2="501.7" y2="192.88"/><line class="cls-8" x1="438.37" y1="209.53" x2="501.7" y2="219.15"/><line class="cls-8" x1="446.58" y1="267.24" x2="502.57" y2="263.25"/><line class="cls-8" x1="615.84" y1="51.83" x2="558.99" y2="135.92"/><line class="cls-8" x1="616.6" y1="135.92" x2="562.77" y2="192.88"/><line class="cls-8" x1="616.6" y1="209.53" x2="562.77" y2="219.15"/><line class="cls-8" x1="613.57" y1="267.24" x2="562.01" y2="263.25"/><line class="cls-10" x1="642.97" y1="224.01" x2="642.97" y2="401.7"/><path class="cls-8" d="M643,399.22c71,0,114.78-41.72,121.92-48.75,38.69-33.61,52.74-80.31,54.8-127"/><line class="cls-11" x1="640.48" y1="224.01" x2="822.06" y2="224.01"/><line class="cls-8" x1="670.85" y1="222.61" x2="670.85" y2="395.54"/><line class="cls-12" x1="781.53" y1="222.61" x2="781.53" y2="334.47"/><line class="cls-8" x1="780.24" y1="260.22" x2="670.85" y2="260.22"/><line class="cls-13" x1="670.85" y1="355.12" x2="760.35" y2="355.12"/><path class="cls-6" d="M732.35,295.89l-17.61-10.16a3.21,3.21,0,0,0-4.87,2.38l-.75,19.23-.76,19.24a3.15,3.15,0,0,0,4.65,2.71l18.37-9,18.38-9a2.83,2.83,0,0,0,.21-5.08Z"/><path class="cls-8" d="M732.35,295.89l-17.61-10.16a3.21,3.21,0,0,0-4.87,2.38l-.75,19.23-.76,19.24a3.15,3.15,0,0,0,4.65,2.71l18.37-9,18.38-9a2.83,2.83,0,0,0,.21-5.08Z"/><line class="cls-8" x1="670.85" y1="260.22" x2="641.24" y2="260.22"/><line class="cls-8" x1="670.85" y1="243.03" x2="641.24" y2="243.03"/><line class="cls-8" x1="670.85" y1="294.59" x2="641.24" y2="294.59"/><line class="cls-8" x1="670.85" y1="277.4" x2="641.24" y2="277.4"/><line class="cls-8" x1="813.96" y1="260.22" x2="781.53" y2="260.22"/><line class="cls-8" x1="816.98" y1="243.03" x2="781.53" y2="243.03"/><line class="cls-8" x1="805.53" y1="294.59" x2="781.53" y2="294.59"/><line class="cls-8" x1="811.15" y1="277.4" x2="781.53" y2="277.4"/><line class="cls-8" x1="670.85" y1="328.85" x2="641.24" y2="328.85"/><line class="cls-8" x1="670.85" y1="311.67" x2="641.24" y2="311.67"/><line class="cls-8" x1="670.85" y1="363.12" x2="641.24" y2="363.12"/><line class="cls-8" x1="670.85" y1="380.3" x2="641.24" y2="380.3"/><line class="cls-8" x1="670.85" y1="346.04" x2="641.24" y2="346.04"/><path class="cls-8" d="M819.69,201.85c3.78-91.11-35.13-182.12-35.13-182.12H643V202.39Z"/><circle class="cls-14" cx="699.29" cy="97.33" r="28.32" transform="translate(385.81 729.96) rotate(-71.56)"/><circle class="cls-9" cx="762.94" cy="97.34" r="28.32"/><circle class="cls-15" cx="731.17" cy="68.91" r="28.32"/><line class="cls-16" x1="615.3" y1="17.25" x2="615.3" y2="401.7"/><path class="cls-7" d="M681.12,135.81,672,141.54l-9.18,14.81-3.35,14.92,1,10,62.36-.11c26-.65,52.1-1.19,78.26-1.84a56.79,56.79,0,0,0-9.52-29,55.48,55.48,0,0,0-19-17.51,34.24,34.24,0,0,0-26.8,3.24,33.63,33.63,0,0,0-14.59,18.91c-2.06-3.46-4.22-7-6.27-10.48l-11.35-11.13L705.44,130l-10.59-.33-8.54,1.95Z"/><path class="cls-8" d="M659,179.26c-.54-30.58,21.94-51.44,41-50.25,22.26,1.4,39.67,35.55,33.4,46.8-1,1.72-4.11,5.94-6.27,5.29-1.95-.54-2.27-4.75-2.38-6.48-.32-4.11.11-11.78,6.7-21.94"/><line class="cls-17" x1="656.37" y1="181.53" x2="802.72" y2="181.53"/><path class="cls-8" d="M800.23,181.1c.54-30.8-21.72-51.88-40.42-50.58-12.86.86-24.1,13.08-29.94,25.29"/><text class="cls-18" transform="translate(278.57 268.09)">ES<tspan class="cls-19" x="52.41" y="0">T</tspan><tspan x="72.05" y="0">.</tspan></text><text class="cls-18" transform="translate(881.82 268.09)">2020</text></svg>