<svg xmlns="http://www.w3.org/2000/svg" xmlns:xlink="http://www.w3.org/1999/xlink" version="1.1" id="Layer_1" x="0px" y="0px" style="enable-background:new 0 0 2000 2000;" xml:space="preserve" viewBox="428.45 653.84 853.63 688.32">
<style type="text/css">
	.st0{font-family:'Intro';}
	.st1{font-size:163.7706px;}
	.st2{font-family:'Montserrat-Bold';}
	.st3{font-size:40.3316px;}
	.st4{letter-spacing:46;}
	.st5{fill:#FFFFFF;}
	.st6{fill:#108E5F;}
	.st7{fill:#397688;}
	.st8{fill:#EAB861;}
	.st9{fill:none;stroke:#000000;stroke-width:4.5594;stroke-miterlimit:10;}
	.st10{fill:#851E22;stroke:#000000;stroke-width:4.5594;stroke-miterlimit:10;}
	.st11{fill:#FFFFFF;stroke:#000000;stroke-width:4.5442;stroke-miterlimit:10;}
	.st12{fill:none;stroke:#000000;stroke-width:4.5279;stroke-miterlimit:10;}
	.st13{fill:none;stroke:#000000;stroke-width:4.6116;stroke-miterlimit:10;}
	.st14{fill:none;stroke:#000000;stroke-width:4.6065;stroke-miterlimit:10;}
	.st15{fill:#397688;stroke:#000000;stroke-width:4.5594;stroke-miterlimit:10;}
	.st16{fill:#108E5F;stroke:#000000;stroke-width:4.5594;stroke-miterlimit:10;}
	.st17{fill:none;stroke:#000000;stroke-width:4.535;stroke-miterlimit:10;}
	.st18{fill:none;stroke:#000000;stroke-width:4.5227;stroke-miterlimit:10;}
	.st19{font-size:36.3476px;}
</style>
<g>
	<text transform="matrix(1 0 0 1 428.4482 1248.4756)" class="st0 st1">Wine Family </text>
	<text transform="matrix(1 0 0 1 625.1914 1333.1611)" class="st2 st3 st4">Production</text>
	<g>
		<path class="st5" d="M1111.53,956.08c-10.42,10.35-26.94,24.3-50.19,35.44c-29.88,14.32-57.11,17.41-73.4,17.98    c0-54.07,0-108.13,0-162.2c54.56,0.26,109.12,0.52,163.69,0.78c0.13,11.62-0.94,26.59-5.43,43.33    C1137.86,922.49,1121.92,944.16,1111.53,956.08z"/>
		<polygon class="st6" points="988.14,663.76 988.44,827.38 1151.95,826.89 1152.08,813.54 1152.08,795.69 1149.17,770.28     1143.93,739.82 1138.89,720.8 1134.04,699.66 1129.38,684.91 1121.23,661.63 1118.52,657.94 993.96,658.52 987.94,659.11   "/>
		<g>
			<path class="st7" d="M822.06,924.72c0,0,21.54,36.09,36.28,45.21c14.75,9.12,52,40.74,102.25,39.77l1.68-8.86l0.13-19.01     l-0.26-15.78l1.68-44.11l-1.94-5.56l-4.4-9.7l-25.8,2.91l-29.88-3.1l-45.98,1.16l-29.1,6.21L822.06,924.72z"/>
			<path class="st8" d="M848.18,659.11l-12.93-0.78l-4.14,1.94l-11.64,33.24l-11.77,46.31c0,0-7.76,43.85-7.37,50.06     c0.39,6.21-3.88,45.01-0.78,56.65c3.1,11.64,7.5,40.36,7.5,40.36l14.1,34.66l5.82,3.49l6.86-2.2l12.16-9.7l8.8-1.03l9.83,5.43     l8.92,7.76l5.43,0.91l11.64-7.24l9.05-5.17l5.3-1.16l8.92,6.21l9.05,6.47l6.98,1.29l13.58-8.54l7.5-4.92l10.86,3.23l0.65-251.32     l1.55-7.5L848.18,659.11z"/>
			<path class="st9" d="M962.84,1009.53c-65.66,0-106.21-41.8-112.84-48.86c-102.76-96.72-18.14-302.25-18.14-302.25h130.98"/>
			<path class="st10" d="M885.66,897.68c0.26,0.01,1.56,0.05,3.22,0.07c0.56,0.01,1.09,0.01,1.27,0.01c0.82,0.01,1.33,0,2.38,0.01     c2.67,0.02,4.84,0.1,6.92,0.03c0.49-0.02,1.66-0.07,3.12-0.45c0,0,0.22-0.06,0.43-0.12c6.3-1.93,9.1-7.77,9.32-8.21     c1.14-2.32,1.25-4.42,1.31-5.33c0.81-12.91,0.12-51.18,0.14-60.89c0.03-16.53,2.24-33.36-0.84-49.41     c-0.63-3.28-2.02-9.35-6.85-14.84c-3.85-4.38-8.43-6.68-11.73-7.94c0-18.13,0.01-36.27,0.01-54.4c-3.04,0-6.09,0-9.13,0h-7.93     c0,18.13,0.01,36.27,0.01,54.4c-3.3,1.25-7.87,3.56-11.73,7.94c-4.83,5.49-6.22,11.55-6.85,14.84     c-3.07,16.05-0.86,32.88-0.84,49.41c0.02,9.71-0.67,47.97,0.14,60.89c0.06,0.91,0.17,3.01,1.31,5.33     c0.22,0.45,3.02,6.29,9.32,8.21c0.18,0.06,0.31,0.09,0.43,0.12c3.01,0.8,5.12,0.51,7.98,0.36     C877.1,897.71,880.57,897.53,885.66,897.68z"/>
			<path class="st9" d="M847.51,956.23c2.45-1.49,4.97-2.51,7.56-2.45c7.91,0.17,16.42,13.87,25,14.04     c8.25,0.16,16.53-13.2,24.78-13.05c8.58,0.16,17.1,13.83,25.01,13.96c9.15,0.16,17.51-13.23,24.77-13.11     c4.48,0.07,7.4,1.32,9.63,3.04"/>
			<path class="st9" d="M881.53,987.09c6.81-3.29,13.63-11.93,20.43-11.81c8.78,0.15,17.5,13.82,25.6,13.95     c9.37,0.15,17.93-13.23,25.37-13.12c4.58,0.07,7.58,1.32,9.86,3.04"/>
			<path class="st9" d="M821.12,923.48c2.19,0.74,4.56,1.22,7.1,1.29c7.23,0.2,15.57-13.12,24.68-12.92     c7.87,0.17,16.35,13.87,24.88,14.04c8.21,0.16,16.45-13.2,24.66-13.05c8.53,0.16,17.02,13.83,24.89,13.96     c9.11,0.16,17.42-13.22,24.65-13.11c5.33,0.09,8.44,1.85,10.81,4.1"/>
			<path class="st9" d="M832.74,943.75c6.2-3.4,13.06-11.66,20.41-11.5c8.04,0.17,16.7,13.86,25.43,14.03     c8.39,0.16,16.82-13.21,25.21-13.06c8.72,0.15,17.4,13.82,25.44,13.95c9.31,0.15,17.81-13.23,25.21-13.12     c4.55,0.07,7.53,1.32,9.8,3.04"/>
			<line class="st10" x1="817.37" y1="701.81" x2="860.19" y2="762.79"/>
			<line class="st10" x1="803.58" y1="765.86" x2="857.66" y2="818.62"/>
			<line class="st10" x1="799.1" y1="833.97" x2="857.66" y2="842.88"/>
			<line class="st10" x1="806.68" y1="887.37" x2="858.52" y2="883.7"/>
			<line class="st10" x1="963.32" y1="688.12" x2="910.68" y2="765.86"/>
			<line class="st10" x1="963.99" y1="765.86" x2="914.25" y2="818.62"/>
			<line class="st10" x1="963.99" y1="833.97" x2="914.25" y2="842.88"/>
			<line class="st10" x1="961.15" y1="887.37" x2="913.46" y2="883.7"/>
		</g>
		<line class="st11" x1="988.44" y1="847.37" x2="988.44" y2="1011.77"/>
		<g>
			<g>
				<path class="st9" d="M988.44,1009.53c65.66,0,106.21-38.61,112.84-45.13c35.75-31.08,48.82-74.31,50.67-117.49"/>
				<line class="st12" x1="986.12" y1="847.37" x2="1154.12" y2="847.37"/>
				<line class="st9" x1="1014.18" y1="846.11" x2="1014.18" y2="1006.06"/>
				<line class="st13" x1="1116.61" y1="846.11" x2="1116.61" y2="949.62"/>
				<line class="st9" x1="1115.43" y1="880.9" x2="1014.18" y2="880.9"/>
				<line class="st14" x1="1014.18" y1="968.66" x2="1097.01" y2="968.66"/>
				<g>
					<path class="st7" d="M1071.05,913.86l-16.34-9.43c-1.92-1.11-4.41,0.12-4.49,2.21l-0.67,17.78l-0.67,17.78       c-0.08,2.09,2.32,3.47,4.31,2.49l17.01-8.35l17.01-8.35c2-0.98,2.09-3.59,0.18-4.7L1071.05,913.86z"/>
					<path class="st9" d="M1071.05,913.86l-16.34-9.43c-1.92-1.11-4.41,0.12-4.49,2.21l-0.67,17.78l-0.67,17.78       c-0.08,2.09,2.32,3.47,4.31,2.49l17.01-8.35l17.01-8.35c2-0.98,2.09-3.59,0.18-4.7L1071.05,913.86z"/>
				</g>
				<line class="st9" x1="1014.18" y1="880.9" x2="986.78" y2="880.9"/>
				<line class="st9" x1="1014.18" y1="865.03" x2="986.78" y2="865.03"/>
				<line class="st9" x1="1014.18" y1="912.65" x2="986.78" y2="912.65"/>
				<line class="st9" x1="1014.18" y1="896.77" x2="986.78" y2="896.77"/>
				<line class="st9" x1="1146.62" y1="880.9" x2="1116.61" y2="880.9"/>
				<line class="st9" x1="1149.44" y1="865.03" x2="1116.61" y2="865.03"/>
				<line class="st9" x1="1138.82" y1="912.65" x2="1116.61" y2="912.65"/>
				<line class="st9" x1="1144.01" y1="896.77" x2="1116.61" y2="896.77"/>
				<line class="st9" x1="1014.18" y1="944.39" x2="986.78" y2="944.39"/>
				<line class="st9" x1="1014.18" y1="928.52" x2="986.78" y2="928.52"/>
				<line class="st9" x1="1014.18" y1="976.13" x2="986.78" y2="976.13"/>
				<line class="st9" x1="1014.18" y1="992" x2="986.78" y2="992"/>
				<line class="st9" x1="1014.18" y1="960.26" x2="986.78" y2="960.26"/>
			</g>
		</g>
		<path class="st9" d="M1151.95,826.89c3.46-84.35-32.53-168.48-32.53-168.48H988.44l0,168.97L1151.95,826.89z"/>
		<circle class="st15" cx="1040.44" cy="730.15" r="26.21"/>
		<circle class="st10" cx="1099.4" cy="730.15" r="26.21"/>
		<circle class="st16" cx="1070.02" cy="703.94" r="26.21"/>
		<line class="st17" x1="962.84" y1="656.11" x2="962.84" y2="1011.81"/>
		<path class="st8" d="M1023.71,765.82l-8.41,5.3l-8.54,13.71l-3.1,13.84l0.91,9.31l57.69-0.13c24.12-0.56,48.25-1.12,72.37-1.68    c-0.23-4.85-1.4-15.76-8.83-26.77c-6.03-8.94-13.42-13.86-17.56-16.2c-1.87-0.56-13.45-3.85-24.83,3.01    c-9.7,5.84-12.82,15.16-13.52,17.46c-1.94-3.23-3.88-6.47-5.82-9.7l-10.48-10.35l-7.5-3.23l-9.83-0.26l-7.89,1.81L1023.71,765.82z    "/>
		<path class="st9" d="M1003.16,805.95c-0.5-28.27,20.32-47.62,37.91-46.47c20.59,1.35,36.67,32.89,30.95,43.27    c-0.89,1.61-3.83,5.49-5.83,4.91c-1.78-0.53-2.07-4.41-2.18-6.04c-0.27-3.76,0.09-10.91,6.22-20.34"/>
		<line class="st18" x1="1000.84" y1="808.07" x2="1136.15" y2="808.07"/>
		<path class="st9" d="M1133.91,807.72c0.5-28.47-20.06-47.97-37.42-46.81c-11.93,0.8-22.32,12.08-27.73,23.37"/>
	</g>
	<g>
		<g>
			<g>
				<text transform="matrix(1 0 0 1 651.2559 888.1846)" class="st2 st19">EST.</text>
			</g>
			<text transform="matrix(1 0 0 1 1209.3867 888.1846)" class="st2 st19">2020</text>
		</g>
	</g>
</g>
</svg>